<svg width="36" height="36" viewBox="0 0 36 36" fill="none" xmlns="http://www.w3.org/2000/svg">
<mask id="mask0_4742_8538" style="mask-type:alpha" maskUnits="userSpaceOnUse" x="0" y="0" width="36" height="36">
<rect width="36" height="36" fill="#D9D9D9"/>
</mask>
<g mask="url(#mask0_4742_8538)">
<path d="M7.2 2C6.54 2 6 2.54 6 3.2V32.8C6 33.46 6.54 34 7.2 34H28.8C29.46 34 30 33.46 30 32.8V10L22 2H7.2Z" fill="#EDEDED"/>
<path d="M30 10H23.6C22.72 10 22 9.28 22 8.4V2L30 10Z" fill="#DBDBDB"/>
<path d="M29.87 15H6.13C5.50592 15 5 15.5979 5 16.3355V26.6645C5 27.4021 5.50592 28 6.13 28H29.87C30.4941 28 31 27.4021 31 26.6645V16.3355C31 15.5979 30.4941 15 29.87 15Z" fill="#1C7947"/>
<path d="M14.4904 25L13.1314 22.885L11.8984 25H10.4764L12.4564 21.832L10.4494 18.718H11.8984L13.2574 20.824L14.4814 18.718H15.9034L13.9324 21.877L15.9394 25H14.4904ZM18.1583 24.001H20.2283V25H16.8983V18.718H18.1583V24.001ZM23.1982 25.063C22.7602 25.063 22.3642 24.988 22.0102 24.838C21.6622 24.688 21.3862 24.472 21.1822 24.19C20.9782 23.908 20.8732 23.575 20.8672 23.191H22.2172C22.2352 23.449 22.3252 23.653 22.4872 23.803C22.6552 23.953 22.8832 24.028 23.1712 24.028C23.4652 24.028 23.6962 23.959 23.8642 23.821C24.0322 23.677 24.1162 23.491 24.1162 23.263C24.1162 23.077 24.0592 22.924 23.9452 22.804C23.8312 22.684 23.6872 22.591 23.5132 22.525C23.3452 22.453 23.1112 22.375 22.8112 22.291C22.4032 22.171 22.0702 22.054 21.8122 21.94C21.5602 21.82 21.3412 21.643 21.1552 21.409C20.9752 21.169 20.8852 20.851 20.8852 20.455C20.8852 20.083 20.9782 19.759 21.1642 19.483C21.3502 19.207 21.6112 18.997 21.9472 18.853C22.2832 18.703 22.6672 18.628 23.0992 18.628C23.7472 18.628 24.2722 18.787 24.6742 19.105C25.0822 19.417 25.3072 19.855 25.3492 20.419H23.9632C23.9512 20.203 23.8582 20.026 23.6842 19.888C23.5162 19.744 23.2912 19.672 23.0092 19.672C22.7632 19.672 22.5652 19.735 22.4152 19.861C22.2712 19.987 22.1992 20.17 22.1992 20.41C22.1992 20.578 22.2532 20.719 22.3612 20.833C22.4752 20.941 22.6132 21.031 22.7752 21.103C22.9432 21.169 23.1772 21.247 23.4772 21.337C23.8852 21.457 24.2182 21.577 24.4762 21.697C24.7342 21.817 24.9562 21.997 25.1422 22.237C25.3282 22.477 25.4212 22.792 25.4212 23.182C25.4212 23.518 25.3342 23.83 25.1602 24.118C24.9862 24.406 24.7312 24.637 24.3952 24.811C24.0592 24.979 23.6602 25.063 23.1982 25.063Z" fill="white"/>
</g>
</svg>
