<svg width="36" height="36" viewBox="0 0 36 36" fill="none" xmlns="http://www.w3.org/2000/svg">
<mask id="mask0_4742_8594" style="mask-type:alpha" maskUnits="userSpaceOnUse" x="0" y="0" width="36" height="36">
<rect width="36" height="36" fill="#D9D9D9"/>
</mask>
<g mask="url(#mask0_4742_8594)">
<path d="M7.2 2C6.54 2 6 2.54 6 3.2V32.8C6 33.46 6.54 34 7.2 34H28.8C29.46 34 30 33.46 30 32.8V10L22 2H7.2Z" fill="#EDEDED"/>
<path d="M30 10H23.6C22.72 10 22 9.28 22 8.4V2L30 10Z" fill="#DBDBDB"/>
<path d="M29.87 15H6.13C5.50592 15 5 15.5979 5 16.3355V26.6645C5 27.4021 5.50592 28 6.13 28H29.87C30.4941 28 31 27.4021 31 26.6645V16.3355C31 15.5979 30.4941 15 29.87 15Z" fill="#3FB6FF"/>
<path d="M14.4964 20.662C14.4964 20.998 14.4154 21.313 14.2534 21.607C14.0974 21.901 13.8484 22.138 13.5064 22.318C13.1704 22.498 12.7444 22.588 12.2284 22.588H11.1754V25H9.91543V18.718H12.2284C12.7144 18.718 13.1284 18.802 13.4704 18.97C13.8124 19.138 14.0674 19.369 14.2354 19.663C14.4094 19.957 14.4964 20.29 14.4964 20.662ZM12.1744 21.571C12.5224 21.571 12.7804 21.493 12.9484 21.337C13.1164 21.175 13.2004 20.95 13.2004 20.662C13.2004 20.05 12.8584 19.744 12.1744 19.744H11.1754V21.571H12.1744ZM17.56 25.063C17.122 25.063 16.726 24.988 16.372 24.838C16.024 24.688 15.748 24.472 15.544 24.19C15.34 23.908 15.235 23.575 15.229 23.191H16.579C16.597 23.449 16.687 23.653 16.849 23.803C17.017 23.953 17.245 24.028 17.533 24.028C17.827 24.028 18.058 23.959 18.226 23.821C18.394 23.677 18.478 23.491 18.478 23.263C18.478 23.077 18.421 22.924 18.307 22.804C18.193 22.684 18.049 22.591 17.875 22.525C17.707 22.453 17.473 22.375 17.173 22.291C16.765 22.171 16.432 22.054 16.174 21.94C15.922 21.82 15.703 21.643 15.517 21.409C15.337 21.169 15.247 20.851 15.247 20.455C15.247 20.083 15.34 19.759 15.526 19.483C15.712 19.207 15.973 18.997 16.309 18.853C16.645 18.703 17.029 18.628 17.461 18.628C18.109 18.628 18.634 18.787 19.036 19.105C19.444 19.417 19.669 19.855 19.711 20.419H18.325C18.313 20.203 18.22 20.026 18.046 19.888C17.878 19.744 17.653 19.672 17.371 19.672C17.125 19.672 16.927 19.735 16.777 19.861C16.633 19.987 16.561 20.17 16.561 20.41C16.561 20.578 16.615 20.719 16.723 20.833C16.837 20.941 16.975 21.031 17.137 21.103C17.305 21.169 17.539 21.247 17.839 21.337C18.247 21.457 18.58 21.577 18.838 21.697C19.096 21.817 19.318 21.997 19.504 22.237C19.69 22.477 19.783 22.792 19.783 23.182C19.783 23.518 19.696 23.83 19.522 24.118C19.348 24.406 19.093 24.637 18.757 24.811C18.421 24.979 18.022 25.063 17.56 25.063ZM23.0714 18.718C23.7314 18.718 24.3104 18.847 24.8084 19.105C25.3124 19.363 25.6994 19.732 25.9694 20.212C26.2454 20.686 26.3834 21.238 26.3834 21.868C26.3834 22.498 26.2454 23.05 25.9694 23.524C25.6994 23.992 25.3124 24.355 24.8084 24.613C24.3104 24.871 23.7314 25 23.0714 25H20.8754V18.718H23.0714ZM23.0264 23.929C23.6864 23.929 24.1964 23.749 24.5564 23.389C24.9164 23.029 25.0964 22.522 25.0964 21.868C25.0964 21.214 24.9164 20.704 24.5564 20.338C24.1964 19.966 23.6864 19.78 23.0264 19.78H22.1354V23.929H23.0264Z" fill="white"/>
</g>
</svg>
