<svg width="36" height="36" viewBox="0 0 36 36" fill="none" xmlns="http://www.w3.org/2000/svg">
<mask id="mask0_4742_8626" style="mask-type:alpha" maskUnits="userSpaceOnUse" x="0" y="0" width="36" height="36">
<rect width="36" height="36" fill="#D9D9D9"/>
</mask>
<g mask="url(#mask0_4742_8626)">
<path d="M7.2 2C6.54 2 6 2.54 6 3.2V32.8C6 33.46 6.54 34 7.2 34H28.8C29.46 34 30 33.46 30 32.8V10L22 2H7.2Z" fill="#EDEDED"/>
<path d="M30 10H23.6C22.72 10 22 9.28 22 8.4V2L30 10Z" fill="#DBDBDB"/>
<path d="M29.87 15H6.13C5.50592 15 5 15.5979 5 16.3355V26.6645C5 27.4021 5.50592 28 6.13 28H29.87C30.4941 28 31 27.4021 31 26.6645V16.3355C31 15.5979 30.4941 15 29.87 15Z" fill="#0068BA"/>
<path d="M9.37652 21.85C9.37652 21.232 9.51452 20.68 9.79052 20.194C10.0725 19.702 10.4535 19.321 10.9335 19.051C11.4195 18.775 11.9625 18.637 12.5625 18.637C13.2645 18.637 13.8795 18.817 14.4075 19.177C14.9355 19.537 15.3045 20.035 15.5145 20.671H14.0655C13.9215 20.371 13.7175 20.146 13.4535 19.996C13.1955 19.846 12.8955 19.771 12.5535 19.771C12.1875 19.771 11.8605 19.858 11.5725 20.032C11.2905 20.2 11.0685 20.44 10.9065 20.752C10.7505 21.064 10.6725 21.43 10.6725 21.85C10.6725 22.264 10.7505 22.63 10.9065 22.948C11.0685 23.26 11.2905 23.503 11.5725 23.677C11.8605 23.845 12.1875 23.929 12.5535 23.929C12.8955 23.929 13.1955 23.854 13.4535 23.704C13.7175 23.548 13.9215 23.32 14.0655 23.02H15.5145C15.3045 23.662 14.9355 24.163 14.4075 24.523C13.8855 24.877 13.2705 25.054 12.5625 25.054C11.9625 25.054 11.4195 24.919 10.9335 24.649C10.4535 24.373 10.0725 23.992 9.79052 23.506C9.51452 23.02 9.37652 22.468 9.37652 21.85ZM18.7597 25.063C18.3217 25.063 17.9257 24.988 17.5717 24.838C17.2237 24.688 16.9477 24.472 16.7437 24.19C16.5397 23.908 16.4347 23.575 16.4287 23.191H17.7787C17.7967 23.449 17.8867 23.653 18.0487 23.803C18.2167 23.953 18.4447 24.028 18.7327 24.028C19.0267 24.028 19.2577 23.959 19.4257 23.821C19.5937 23.677 19.6777 23.491 19.6777 23.263C19.6777 23.077 19.6207 22.924 19.5067 22.804C19.3927 22.684 19.2487 22.591 19.0747 22.525C18.9067 22.453 18.6727 22.375 18.3727 22.291C17.9647 22.171 17.6317 22.054 17.3737 21.94C17.1217 21.82 16.9027 21.643 16.7167 21.409C16.5367 21.169 16.4467 20.851 16.4467 20.455C16.4467 20.083 16.5397 19.759 16.7257 19.483C16.9117 19.207 17.1727 18.997 17.5087 18.853C17.8447 18.703 18.2287 18.628 18.6607 18.628C19.3087 18.628 19.8337 18.787 20.2357 19.105C20.6437 19.417 20.8687 19.855 20.9107 20.419H19.5247C19.5127 20.203 19.4197 20.026 19.2457 19.888C19.0777 19.744 18.8527 19.672 18.5707 19.672C18.3247 19.672 18.1267 19.735 17.9767 19.861C17.8327 19.987 17.7607 20.17 17.7607 20.41C17.7607 20.578 17.8147 20.719 17.9227 20.833C18.0367 20.941 18.1747 21.031 18.3367 21.103C18.5047 21.169 18.7387 21.247 19.0387 21.337C19.4467 21.457 19.7797 21.577 20.0377 21.697C20.2957 21.817 20.5177 21.997 20.7037 22.237C20.8897 22.477 20.9827 22.792 20.9827 23.182C20.9827 23.518 20.8957 23.83 20.7217 24.118C20.5477 24.406 20.2927 24.637 19.9567 24.811C19.6207 24.979 19.2217 25.063 18.7597 25.063ZM24.2441 25.063C23.8061 25.063 23.4101 24.988 23.0561 24.838C22.7081 24.688 22.4321 24.472 22.2281 24.19C22.0241 23.908 21.9191 23.575 21.9131 23.191H23.2631C23.2811 23.449 23.3711 23.653 23.5331 23.803C23.7011 23.953 23.9291 24.028 24.2171 24.028C24.5111 24.028 24.7421 23.959 24.9101 23.821C25.0781 23.677 25.1621 23.491 25.1621 23.263C25.1621 23.077 25.1051 22.924 24.9911 22.804C24.8771 22.684 24.7331 22.591 24.5591 22.525C24.3911 22.453 24.1571 22.375 23.8571 22.291C23.4491 22.171 23.1161 22.054 22.8581 21.94C22.6061 21.82 22.3871 21.643 22.2011 21.409C22.0211 21.169 21.9311 20.851 21.9311 20.455C21.9311 20.083 22.0241 19.759 22.2101 19.483C22.3961 19.207 22.6571 18.997 22.9931 18.853C23.3291 18.703 23.7131 18.628 24.1451 18.628C24.7931 18.628 25.3181 18.787 25.7201 19.105C26.1281 19.417 26.3531 19.855 26.3951 20.419H25.0091C24.9971 20.203 24.9041 20.026 24.7301 19.888C24.5621 19.744 24.3371 19.672 24.0551 19.672C23.8091 19.672 23.6111 19.735 23.4611 19.861C23.3171 19.987 23.2451 20.17 23.2451 20.41C23.2451 20.578 23.2991 20.719 23.4071 20.833C23.5211 20.941 23.6591 21.031 23.8211 21.103C23.9891 21.169 24.2231 21.247 24.5231 21.337C24.9311 21.457 25.2641 21.577 25.5221 21.697C25.7801 21.817 26.0021 21.997 26.1881 22.237C26.3741 22.477 26.4671 22.792 26.4671 23.182C26.4671 23.518 26.3801 23.83 26.2061 24.118C26.0321 24.406 25.7771 24.637 25.4411 24.811C25.1051 24.979 24.7061 25.063 24.2441 25.063Z" fill="white"/>
</g>
</svg>
