<svg width="36" height="36" viewBox="0 0 36 36" fill="none" xmlns="http://www.w3.org/2000/svg">
<mask id="mask0_4742_8578" style="mask-type:alpha" maskUnits="userSpaceOnUse" x="0" y="0" width="36" height="36">
<rect width="36" height="36" fill="#D9D9D9"/>
</mask>
<g mask="url(#mask0_4742_8578)">
<path d="M7.2 2C6.54 2 6 2.54 6 3.2V32.8C6 33.46 6.54 34 7.2 34H28.8C29.46 34 30 33.46 30 32.8V10L22 2H7.2Z" fill="#EDEDED"/>
<path d="M30 10H23.6C22.72 10 22 9.28 22 8.4V2L30 10Z" fill="#DBDBDB"/>
<path d="M29.87 15H6.13C5.50592 15 5 15.5979 5 16.3355V26.6645C5 27.4021 5.50592 28 6.13 28H29.87C30.4941 28 31 27.4021 31 26.6645V16.3355C31 15.5979 30.4941 15 29.87 15Z" fill="#219C90"/>
<path d="M15.1167 18.718V19.735H13.4427V25H12.1827V19.735H10.5087V18.718H15.1167ZM19.798 25L18.439 22.885L17.206 25H15.784L17.764 21.832L15.757 18.718H17.206L18.565 20.824L19.789 18.718H21.211L19.24 21.877L21.247 25H19.798ZM26.481 18.718V19.735H24.807V25H23.547V19.735H21.873V18.718H26.481Z" fill="white"/>
</g>
</svg>
