<svg width="36" height="36" viewBox="0 0 36 36" fill="none" xmlns="http://www.w3.org/2000/svg">
<mask id="mask0_4742_8602" style="mask-type:alpha" maskUnits="userSpaceOnUse" x="0" y="0" width="36" height="36">
<rect width="36" height="36" fill="#D9D9D9"/>
</mask>
<g mask="url(#mask0_4742_8602)">
<path d="M7.2 2C6.54 2 6 2.54 6 3.2V32.8C6 33.46 6.54 34 7.2 34H28.8C29.46 34 30 33.46 30 32.8V10L22 2H7.2Z" fill="#EDEDED"/>
<path d="M30 10H23.6C22.72 10 22 9.28 22 8.4V2L30 10Z" fill="#DBDBDB"/>
<path d="M29.87 15H6.13C5.50592 15 5 15.5979 5 16.3355V26.6645C5 27.4021 5.50592 28 6.13 28H29.87C30.4941 28 31 27.4021 31 26.6645V16.3355C31 15.5979 30.4941 15 29.87 15Z" fill="#F95D97"/>
<path d="M14.8001 23.803H12.2981L11.8841 25H10.5611L12.8201 18.709H14.2871L16.5461 25H15.2141L14.8001 23.803ZM14.4581 22.795L13.5491 20.167L12.6401 22.795H14.4581ZM23.0335 18.718L20.7295 25H19.1995L16.8955 18.718H18.2455L19.9735 23.713L21.6925 18.718H23.0335ZM25.049 18.718V25H23.789V18.718H25.049Z" fill="white"/>
</g>
</svg>
