<svg width="36" height="36" viewBox="0 0 36 36" fill="none" xmlns="http://www.w3.org/2000/svg">
<mask id="mask0_4742_8546" style="mask-type:alpha" maskUnits="userSpaceOnUse" x="0" y="0" width="36" height="36">
<rect width="36" height="36" fill="#D9D9D9"/>
</mask>
<g mask="url(#mask0_4742_8546)">
<path d="M7.2 2C6.54 2 6 2.54 6 3.2V32.8C6 33.46 6.54 34 7.2 34H28.8C29.46 34 30 33.46 30 32.8V10L22 2H7.2Z" fill="#EDEDED"/>
<path d="M30 10H23.6C22.72 10 22 9.28 22 8.4V2L30 10Z" fill="#DBDBDB"/>
<path d="M29.87 15H6.13C5.50592 15 5 15.5979 5 16.3355V26.6645C5 27.4021 5.50592 28 6.13 28H29.87C30.4941 28 31 27.4021 31 26.6645V16.3355C31 15.5979 30.4941 15 29.87 15Z" fill="#FFD139"/>
<path d="M13.325 23.938H16.151V25H11.867V24.028L14.675 19.78H11.867V18.718H16.151V19.69L13.325 23.938ZM18.4835 18.718V25H17.2235V18.718H18.4835ZM24.3094 20.662C24.3094 20.998 24.2284 21.313 24.0664 21.607C23.9104 21.901 23.6614 22.138 23.3194 22.318C22.9834 22.498 22.5574 22.588 22.0414 22.588H20.9884V25H19.7284V18.718H22.0414C22.5274 18.718 22.9414 18.802 23.2834 18.97C23.6254 19.138 23.8804 19.369 24.0484 19.663C24.2224 19.957 24.3094 20.29 24.3094 20.662ZM21.9874 21.571C22.3354 21.571 22.5934 21.493 22.7614 21.337C22.9294 21.175 23.0134 20.95 23.0134 20.662C23.0134 20.05 22.6714 19.744 21.9874 19.744H20.9884V21.571H21.9874Z" fill="white"/>
</g>
</svg>
