<svg width="36" height="36" viewBox="0 0 36 36" fill="none" xmlns="http://www.w3.org/2000/svg">
<mask id="mask0_4788_8349" style="mask-type:alpha" maskUnits="userSpaceOnUse" x="0" y="0" width="36" height="36">
<rect width="36" height="36" fill="#D9D9D9"/>
</mask>
<g mask="url(#mask0_4788_8349)">
<path d="M7.2 2C6.54 2 6 2.54 6 3.2V32.8C6 33.46 6.54 34 7.2 34H28.8C29.46 34 30 33.46 30 32.8V10L22 2H7.2Z" fill="#EDEDED"/>
<path d="M30 10H23.6C22.72 10 22 9.28 22 8.4V2L30 10Z" fill="#DBDBDB"/>
<path d="M29.87 15H6.13C5.50592 15 5 15.5979 5 16.3355V26.6645C5 27.4021 5.50592 28 6.13 28H29.87C30.4941 28 31 27.4021 31 26.6645V16.3355C31 15.5979 30.4941 15 29.87 15Z" fill="#878C96"/>
<path d="M11.9347 19.735V21.31H14.0497V22.309H11.9347V23.974H14.3197V25H10.6747V18.709H14.3197V19.735H11.9347ZM19.7398 18.718V19.735H18.0658V25H16.8058V19.735H15.1318V18.718H19.7398ZM20.3531 21.85C20.3531 21.232 20.4911 20.68 20.7671 20.194C21.0491 19.702 21.4301 19.321 21.9101 19.051C22.3961 18.775 22.9391 18.637 23.5391 18.637C24.2411 18.637 24.8561 18.817 25.3841 19.177C25.9121 19.537 26.2811 20.035 26.4911 20.671H25.0421C24.8981 20.371 24.6941 20.146 24.4301 19.996C24.1721 19.846 23.8721 19.771 23.5301 19.771C23.1641 19.771 22.8371 19.858 22.5491 20.032C22.2671 20.2 22.0451 20.44 21.8831 20.752C21.7271 21.064 21.6491 21.43 21.6491 21.85C21.6491 22.264 21.7271 22.63 21.8831 22.948C22.0451 23.26 22.2671 23.503 22.5491 23.677C22.8371 23.845 23.1641 23.929 23.5301 23.929C23.8721 23.929 24.1721 23.854 24.4301 23.704C24.6941 23.548 24.8981 23.32 25.0421 23.02H26.4911C26.2811 23.662 25.9121 24.163 25.3841 24.523C24.8621 24.877 24.2471 25.054 23.5391 25.054C22.9391 25.054 22.3961 24.919 21.9101 24.649C21.4301 24.373 21.0491 23.992 20.7671 23.506C20.4911 23.02 20.3531 22.468 20.3531 21.85Z" fill="white"/>
</g>
</svg>
