<svg width="36" height="36" viewBox="0 0 36 36" fill="none" xmlns="http://www.w3.org/2000/svg">
<mask id="mask0_4742_8586" style="mask-type:alpha" maskUnits="userSpaceOnUse" x="0" y="0" width="36" height="36">
<rect width="36" height="36" fill="#D9D9D9"/>
</mask>
<g mask="url(#mask0_4742_8586)">
<path d="M7.2 2C6.54 2 6 2.54 6 3.2V32.8C6 33.46 6.54 34 7.2 34H28.8C29.46 34 30 33.46 30 32.8V10L22 2H7.2Z" fill="#EDEDED"/>
<path d="M30 10H23.6C22.72 10 22 9.28 22 8.4V2L30 10Z" fill="#DBDBDB"/>
<path d="M29.87 15H6.13C5.50592 15 5 15.5979 5 16.3355V26.6645C5 27.4021 5.50592 28 6.13 28H29.87C30.4941 28 31 27.4021 31 26.6645V16.3355C31 15.5979 30.4941 15 29.87 15Z" fill="#EA5455"/>
<path d="M15.3524 20.662C15.3524 20.998 15.2714 21.313 15.1094 21.607C14.9534 21.901 14.7044 22.138 14.3624 22.318C14.0264 22.498 13.6004 22.588 13.0844 22.588H12.0314V25H10.7714V18.718H13.0844C13.5704 18.718 13.9844 18.802 14.3264 18.97C14.6684 19.138 14.9234 19.369 15.0914 19.663C15.2654 19.957 15.3524 20.29 15.3524 20.662ZM13.0304 21.571C13.3784 21.571 13.6364 21.493 13.8044 21.337C13.9724 21.175 14.0564 20.95 14.0564 20.662C14.0564 20.05 13.7144 19.744 13.0304 19.744H12.0314V21.571H13.0304ZM18.443 18.718C19.103 18.718 19.682 18.847 20.18 19.105C20.684 19.363 21.071 19.732 21.341 20.212C21.617 20.686 21.755 21.238 21.755 21.868C21.755 22.498 21.617 23.05 21.341 23.524C21.071 23.992 20.684 24.355 20.18 24.613C19.682 24.871 19.103 25 18.443 25H16.247V18.718H18.443ZM18.398 23.929C19.058 23.929 19.568 23.749 19.928 23.389C20.288 23.029 20.468 22.522 20.468 21.868C20.468 21.214 20.288 20.704 19.928 20.338C19.568 19.966 19.058 19.78 18.398 19.78H17.507V23.929H18.398ZM26.5771 18.718V19.735H23.9581V21.346H25.9651V22.345H23.9581V25H22.6981V18.718H26.5771Z" fill="white"/>
</g>
</svg>
