<svg width="36" height="36" viewBox="0 0 36 36" fill="none" xmlns="http://www.w3.org/2000/svg">
<mask id="mask0_4742_8554" style="mask-type:alpha" maskUnits="userSpaceOnUse" x="0" y="0" width="36" height="36">
<rect width="36" height="36" fill="#D9D9D9"/>
</mask>
<g mask="url(#mask0_4742_8554)">
<path d="M7.2 2C6.54 2 6 2.54 6 3.2V32.8C6 33.46 6.54 34 7.2 34H28.8C29.46 34 30 33.46 30 32.8V10L22 2H7.2Z" fill="#EDEDED"/>
<path d="M30 10H23.6C22.72 10 22 9.28 22 8.4V2L30 10Z" fill="#DBDBDB"/>
<path d="M29.87 15H6.13C5.50592 15 5 15.5979 5 16.3355V26.6645C5 27.4021 5.50592 28 6.13 28H29.87C30.4941 28 31 27.4021 31 26.6645V16.3355C31 15.5979 30.4941 15 29.87 15Z" fill="#537FE7"/>
<path d="M11.1041 18.718C11.7641 18.718 12.3431 18.847 12.8411 19.105C13.3451 19.363 13.7321 19.732 14.0021 20.212C14.2781 20.686 14.4161 21.238 14.4161 21.868C14.4161 22.498 14.2781 23.05 14.0021 23.524C13.7321 23.992 13.3451 24.355 12.8411 24.613C12.3431 24.871 11.7641 25 11.1041 25H8.90811V18.718H11.1041ZM11.0591 23.929C11.7191 23.929 12.2291 23.749 12.5891 23.389C12.9491 23.029 13.1291 22.522 13.1291 21.868C13.1291 21.214 12.9491 20.704 12.5891 20.338C12.2291 19.966 11.7191 19.78 11.0591 19.78H10.1681V23.929H11.0591ZM18.2753 25.063C17.6873 25.063 17.1473 24.925 16.6553 24.649C16.1633 24.373 15.7733 23.992 15.4853 23.506C15.1973 23.014 15.0533 22.459 15.0533 21.841C15.0533 21.229 15.1973 20.68 15.4853 20.194C15.7733 19.702 16.1633 19.318 16.6553 19.042C17.1473 18.766 17.6873 18.628 18.2753 18.628C18.8693 18.628 19.4093 18.766 19.8953 19.042C20.3873 19.318 20.7743 19.702 21.0563 20.194C21.3443 20.68 21.4883 21.229 21.4883 21.841C21.4883 22.459 21.3443 23.014 21.0563 23.506C20.7743 23.992 20.3873 24.373 19.8953 24.649C19.4033 24.925 18.8633 25.063 18.2753 25.063ZM18.2753 23.938C18.6533 23.938 18.9863 23.854 19.2743 23.686C19.5623 23.512 19.7873 23.266 19.9493 22.948C20.1113 22.63 20.1923 22.261 20.1923 21.841C20.1923 21.421 20.1113 21.055 19.9493 20.743C19.7873 20.425 19.5623 20.182 19.2743 20.014C18.9863 19.846 18.6533 19.762 18.2753 19.762C17.8973 19.762 17.5613 19.846 17.2673 20.014C16.9793 20.182 16.7543 20.425 16.5923 20.743C16.4303 21.055 16.3493 21.421 16.3493 21.841C16.3493 22.261 16.4303 22.63 16.5923 22.948C16.7543 23.266 16.9793 23.512 17.2673 23.686C17.5613 23.854 17.8973 23.938 18.2753 23.938ZM22.1197 21.85C22.1197 21.232 22.2577 20.68 22.5337 20.194C22.8157 19.702 23.1967 19.321 23.6767 19.051C24.1627 18.775 24.7057 18.637 25.3057 18.637C26.0077 18.637 26.6227 18.817 27.1507 19.177C27.6787 19.537 28.0477 20.035 28.2577 20.671H26.8087C26.6647 20.371 26.4607 20.146 26.1967 19.996C25.9387 19.846 25.6387 19.771 25.2967 19.771C24.9307 19.771 24.6037 19.858 24.3157 20.032C24.0337 20.2 23.8117 20.44 23.6497 20.752C23.4937 21.064 23.4157 21.43 23.4157 21.85C23.4157 22.264 23.4937 22.63 23.6497 22.948C23.8117 23.26 24.0337 23.503 24.3157 23.677C24.6037 23.845 24.9307 23.929 25.2967 23.929C25.6387 23.929 25.9387 23.854 26.1967 23.704C26.4607 23.548 26.6647 23.32 26.8087 23.02H28.2577C28.0477 23.662 27.6787 24.163 27.1507 24.523C26.6287 24.877 26.0137 25.054 25.3057 25.054C24.7057 25.054 24.1627 24.919 23.6767 24.649C23.1967 24.373 22.8157 23.992 22.5337 23.506C22.2577 23.02 22.1197 22.468 22.1197 21.85Z" fill="white"/>
</g>
</svg>
