<svg width="36" height="36" viewBox="0 0 36 36" fill="none" xmlns="http://www.w3.org/2000/svg">
<mask id="mask0_4818_8354" style="mask-type:alpha" maskUnits="userSpaceOnUse" x="0" y="0" width="36" height="36">
<rect width="36" height="36" fill="#D9D9D9"/>
</mask>
<g mask="url(#mask0_4818_8354)">
<path d="M7.2 2C6.54 2 6 2.54 6 3.2V32.8C6 33.46 6.54 34 7.2 34H28.8C29.46 34 30 33.46 30 32.8V10L22 2H7.2Z" fill="#EDEDED"/>
<path d="M30 10H23.6C22.72 10 22 9.28 22 8.4V2L30 10Z" fill="#DBDBDB"/>
<path d="M29.87 15H6.13C5.50592 15 5 15.5979 5 16.3355V26.6645C5 27.4021 5.50592 28 6.13 28H29.87C30.4941 28 31 27.4021 31 26.6645V16.3355C31 15.5979 30.4941 15 29.87 15Z" fill="#EB714B"/>
<path d="M14.6292 20.662C14.6292 20.998 14.5482 21.313 14.3862 21.607C14.2302 21.901 13.9812 22.138 13.6392 22.318C13.3032 22.498 12.8772 22.588 12.3612 22.588H11.3082V25H10.0482V18.718H12.3612C12.8472 18.718 13.2612 18.802 13.6032 18.97C13.9452 19.138 14.2002 19.369 14.3682 19.663C14.5422 19.957 14.6292 20.29 14.6292 20.662ZM12.3072 21.571C12.6552 21.571 12.9132 21.493 13.0812 21.337C13.2492 21.175 13.3332 20.95 13.3332 20.662C13.3332 20.05 12.9912 19.744 12.3072 19.744H11.3082V21.571H12.3072ZM20.1048 20.662C20.1048 20.998 20.0238 21.313 19.8618 21.607C19.7058 21.901 19.4568 22.138 19.1148 22.318C18.7788 22.498 18.3528 22.588 17.8368 22.588H16.7838V25H15.5238V18.718H17.8368C18.3228 18.718 18.7368 18.802 19.0788 18.97C19.4208 19.138 19.6758 19.369 19.8438 19.663C20.0178 19.957 20.1048 20.29 20.1048 20.662ZM17.7828 21.571C18.1308 21.571 18.3888 21.493 18.5568 21.337C18.7248 21.175 18.8088 20.95 18.8088 20.662C18.8088 20.05 18.4668 19.744 17.7828 19.744H16.7838V21.571H17.7828ZM25.2744 18.718V19.735H23.6004V25H22.3404V19.735H20.6664V18.718H25.2744Z" fill="white"/>
</g>
</svg>
