<svg width="36" height="36" viewBox="0 0 36 36" fill="none" xmlns="http://www.w3.org/2000/svg">
<mask id="mask0_4742_8618" style="mask-type:alpha" maskUnits="userSpaceOnUse" x="0" y="0" width="36" height="36">
<rect width="36" height="36" fill="#D9D9D9"/>
</mask>
<g mask="url(#mask0_4742_8618)">
<path d="M7.2 2C6.54 2 6 2.54 6 3.2V32.8C6 33.46 6.54 34 7.2 34H28.8C29.46 34 30 33.46 30 32.8V10L22 2H7.2Z" fill="#EDEDED"/>
<path d="M30 10H23.6C22.72 10 22 9.28 22 8.4V2L30 10Z" fill="#DBDBDB"/>
<path d="M29.87 15H6.13C5.50592 15 5 15.5979 5 16.3355V26.6645C5 27.4021 5.50592 28 6.13 28H29.87C30.4941 28 31 27.4021 31 26.6645V16.3355C31 15.5979 30.4941 15 29.87 15Z" fill="#FFA663"/>
<path d="M12.006 19.735V21.31H14.121V22.309H12.006V23.974H14.391V25H10.746V18.709H14.391V19.735H12.006ZM20.117 20.662C20.117 20.998 20.036 21.313 19.874 21.607C19.718 21.901 19.469 22.138 19.127 22.318C18.791 22.498 18.365 22.588 17.849 22.588H16.796V25H15.536V18.718H17.849C18.335 18.718 18.749 18.802 19.091 18.97C19.433 19.138 19.688 19.369 19.856 19.663C20.03 19.957 20.117 20.29 20.117 20.662ZM17.795 21.571C18.143 21.571 18.401 21.493 18.569 21.337C18.737 21.175 18.821 20.95 18.821 20.662C18.821 20.05 18.479 19.744 17.795 19.744H16.796V21.571H17.795ZM23.1806 25.063C22.7426 25.063 22.3466 24.988 21.9926 24.838C21.6446 24.688 21.3686 24.472 21.1646 24.19C20.9606 23.908 20.8556 23.575 20.8496 23.191H22.1996C22.2176 23.449 22.3076 23.653 22.4696 23.803C22.6376 23.953 22.8656 24.028 23.1536 24.028C23.4476 24.028 23.6786 23.959 23.8466 23.821C24.0146 23.677 24.0986 23.491 24.0986 23.263C24.0986 23.077 24.0416 22.924 23.9276 22.804C23.8136 22.684 23.6696 22.591 23.4956 22.525C23.3276 22.453 23.0936 22.375 22.7936 22.291C22.3856 22.171 22.0526 22.054 21.7946 21.94C21.5426 21.82 21.3236 21.643 21.1376 21.409C20.9576 21.169 20.8676 20.851 20.8676 20.455C20.8676 20.083 20.9606 19.759 21.1466 19.483C21.3326 19.207 21.5936 18.997 21.9296 18.853C22.2656 18.703 22.6496 18.628 23.0816 18.628C23.7296 18.628 24.2546 18.787 24.6566 19.105C25.0646 19.417 25.2896 19.855 25.3316 20.419H23.9456C23.9336 20.203 23.8406 20.026 23.6666 19.888C23.4986 19.744 23.2736 19.672 22.9916 19.672C22.7456 19.672 22.5476 19.735 22.3976 19.861C22.2536 19.987 22.1816 20.17 22.1816 20.41C22.1816 20.578 22.2356 20.719 22.3436 20.833C22.4576 20.941 22.5956 21.031 22.7576 21.103C22.9256 21.169 23.1596 21.247 23.4596 21.337C23.8676 21.457 24.2006 21.577 24.4586 21.697C24.7166 21.817 24.9386 21.997 25.1246 22.237C25.3106 22.477 25.4036 22.792 25.4036 23.182C25.4036 23.518 25.3166 23.83 25.1426 24.118C24.9686 24.406 24.7136 24.637 24.3776 24.811C24.0416 24.979 23.6426 25.063 23.1806 25.063Z" fill="white"/>
</g>
</svg>
