<svg width="36" height="36" viewBox="0 0 36 36" fill="none" xmlns="http://www.w3.org/2000/svg">
<mask id="mask0_4742_8562" style="mask-type:alpha" maskUnits="userSpaceOnUse" x="0" y="0" width="36" height="36">
<rect width="36" height="36" fill="#D9D9D9"/>
</mask>
<g mask="url(#mask0_4742_8562)">
<path d="M7.2 2C6.54 2 6 2.54 6 3.2V32.8C6 33.46 6.54 34 7.2 34H28.8C29.46 34 30 33.46 30 32.8V10L22 2H7.2Z" fill="#EDEDED"/>
<path d="M30 10H23.6C22.72 10 22 9.28 22 8.4V2L30 10Z" fill="#DBDBDB"/>
<path d="M29.87 15H6.13C5.50592 15 5 15.5979 5 16.3355V26.6645C5 27.4021 5.50592 28 6.13 28H29.87C30.4941 28 31 27.4021 31 26.6645V16.3355C31 15.5979 30.4941 15 29.87 15Z" fill="#8EA6F7"/>
<path d="M16.491 18.718V25H15.231V20.914L13.548 25H12.594L10.902 20.914V25H9.642V18.718H11.073L13.071 23.389L15.069 18.718H16.491ZM22.3177 20.662C22.3177 20.998 22.2367 21.313 22.0747 21.607C21.9187 21.901 21.6697 22.138 21.3277 22.318C20.9917 22.498 20.5657 22.588 20.0497 22.588H18.9967V25H17.7367V18.718H20.0497C20.5357 18.718 20.9497 18.802 21.2917 18.97C21.6337 19.138 21.8887 19.369 22.0567 19.663C22.2307 19.957 22.3177 20.29 22.3177 20.662ZM19.9957 21.571C20.3437 21.571 20.6017 21.493 20.7697 21.337C20.9377 21.175 21.0217 20.95 21.0217 20.662C21.0217 20.05 20.6797 19.744 19.9957 19.744H18.9967V21.571H19.9957ZM23.0863 20.167C23.1163 19.567 23.3263 19.105 23.7163 18.781C24.1123 18.451 24.6313 18.286 25.2733 18.286C25.7113 18.286 26.0863 18.364 26.3983 18.52C26.7103 18.67 26.9443 18.877 27.1003 19.141C27.2623 19.399 27.3433 19.693 27.3433 20.023C27.3433 20.401 27.2443 20.722 27.0463 20.986C26.8543 21.244 26.6233 21.418 26.3533 21.508V21.544C26.7013 21.652 26.9713 21.844 27.1633 22.12C27.3613 22.396 27.4603 22.75 27.4603 23.182C27.4603 23.542 27.3763 23.863 27.2083 24.145C27.0463 24.427 26.8033 24.649 26.4793 24.811C26.1613 24.967 25.7773 25.045 25.3273 25.045C24.6493 25.045 24.0973 24.874 23.6713 24.532C23.2453 24.19 23.0203 23.686 22.9963 23.02H24.2203C24.2323 23.314 24.3313 23.551 24.5173 23.731C24.7093 23.905 24.9703 23.992 25.3003 23.992C25.6063 23.992 25.8403 23.908 26.0023 23.74C26.1703 23.566 26.2543 23.344 26.2543 23.074C26.2543 22.714 26.1403 22.456 25.9123 22.3C25.6843 22.144 25.3303 22.066 24.8503 22.066H24.5893V21.031H24.8503C25.7023 21.031 26.1283 20.746 26.1283 20.176C26.1283 19.918 26.0503 19.717 25.8943 19.573C25.7443 19.429 25.5253 19.357 25.2373 19.357C24.9553 19.357 24.7363 19.435 24.5803 19.591C24.4303 19.741 24.3433 19.933 24.3193 20.167H23.0863Z" fill="white"/>
</g>
</svg>
