<svg width="36" height="36" viewBox="0 0 36 36" fill="none" xmlns="http://www.w3.org/2000/svg">
<mask id="mask0_4742_8610" style="mask-type:alpha" maskUnits="userSpaceOnUse" x="0" y="0" width="36" height="36">
<rect width="36" height="36" fill="#D9D9D9"/>
</mask>
<g mask="url(#mask0_4742_8610)">
<path d="M7.2 2C6.54 2 6 2.54 6 3.2V32.8C6 33.46 6.54 34 7.2 34H28.8C29.46 34 30 33.46 30 32.8V10L22 2H7.2Z" fill="#EDEDED"/>
<path d="M30 10H23.6C22.72 10 22 9.28 22 8.4V2L30 10Z" fill="#DBDBDB"/>
<path d="M29.87 15H6.13C5.50592 15 5 15.5979 5 16.3355V26.6645C5 27.4021 5.50592 28 6.13 28H29.87C30.4941 28 31 27.4021 31 26.6645V16.3355C31 15.5979 30.4941 15 29.87 15Z" fill="#53BF9D"/>
<path d="M13.5257 18.718V23.128C13.5257 23.74 13.3487 24.217 12.9947 24.559C12.6407 24.895 12.1667 25.063 11.5727 25.063C10.9727 25.063 10.4867 24.889 10.1147 24.541C9.7487 24.193 9.5657 23.707 9.5657 23.083H10.8257C10.8317 23.353 10.8947 23.563 11.0147 23.713C11.1407 23.863 11.3207 23.938 11.5547 23.938C11.7827 23.938 11.9567 23.866 12.0767 23.722C12.1967 23.578 12.2567 23.38 12.2567 23.128V18.718H13.5257ZM19.5765 20.662C19.5765 20.998 19.4955 21.313 19.3335 21.607C19.1775 21.901 18.9285 22.138 18.5865 22.318C18.2505 22.498 17.8245 22.588 17.3085 22.588H16.2555V25H14.9955V18.718H17.3085C17.7945 18.718 18.2085 18.802 18.5505 18.97C18.8925 19.138 19.1475 19.369 19.3155 19.663C19.4895 19.957 19.5765 20.29 19.5765 20.662ZM17.2545 21.571C17.6025 21.571 17.8605 21.493 18.0285 21.337C18.1965 21.175 18.2805 20.95 18.2805 20.662C18.2805 20.05 17.9385 19.744 17.2545 19.744H16.2555V21.571H17.2545ZM24.8451 20.608C24.7011 20.344 24.5031 20.143 24.2511 20.005C23.9991 19.867 23.7051 19.798 23.3691 19.798C22.9971 19.798 22.6671 19.882 22.3791 20.05C22.0911 20.218 21.8661 20.458 21.7041 20.77C21.5421 21.082 21.4611 21.442 21.4611 21.85C21.4611 22.27 21.5421 22.636 21.7041 22.948C21.8721 23.26 22.1031 23.5 22.3971 23.668C22.6911 23.836 23.0331 23.92 23.4231 23.92C23.9031 23.92 24.2961 23.794 24.6021 23.542C24.9081 23.284 25.1091 22.927 25.2051 22.471H23.0451V21.508H26.4471V22.606C26.3631 23.044 26.1831 23.449 25.9071 23.821C25.6311 24.193 25.2741 24.493 24.8361 24.721C24.4041 24.943 23.9181 25.054 23.3781 25.054C22.7721 25.054 22.2231 24.919 21.7311 24.649C21.2451 24.373 20.8611 23.992 20.5791 23.506C20.3031 23.02 20.1651 22.468 20.1651 21.85C20.1651 21.232 20.3031 20.68 20.5791 20.194C20.8611 19.702 21.2451 19.321 21.7311 19.051C22.2231 18.775 22.7691 18.637 23.3691 18.637C24.0771 18.637 24.6921 18.811 25.2141 19.159C25.7361 19.501 26.0961 19.984 26.2941 20.608H24.8451Z" fill="white"/>
</g>
</svg>
