<svg width="36" height="36" viewBox="0 0 36 36" fill="none" xmlns="http://www.w3.org/2000/svg">
<mask id="mask0_4742_8570" style="mask-type:alpha" maskUnits="userSpaceOnUse" x="0" y="0" width="36" height="36">
<rect width="36" height="36" fill="#D9D9D9"/>
</mask>
<g mask="url(#mask0_4742_8570)">
<path d="M7.2 2C6.54 2 6 2.54 6 3.2V32.8C6 33.46 6.54 34 7.2 34H28.8C29.46 34 30 33.46 30 32.8V10L22 2H7.2Z" fill="#EDEDED"/>
<path d="M30 10H23.6C22.72 10 22 9.28 22 8.4V2L30 10Z" fill="#DBDBDB"/>
<path d="M29.87 15H6.13C5.50592 15 5 15.5979 5 16.3355V26.6645C5 27.4021 5.50592 28 6.13 28H29.87C30.4941 28 31 27.4021 31 26.6645V16.3355C31 15.5979 30.4941 15 29.87 15Z" fill="#BE6DB7"/>
<path d="M13.701 20.662C13.701 20.998 13.62 21.313 13.458 21.607C13.302 21.901 13.053 22.138 12.711 22.318C12.375 22.498 11.949 22.588 11.433 22.588H10.38V25H9.12002V18.718H11.433C11.919 18.718 12.333 18.802 12.675 18.97C13.017 19.138 13.272 19.369 13.44 19.663C13.614 19.957 13.701 20.29 13.701 20.662ZM11.379 21.571C11.727 21.571 11.985 21.493 12.153 21.337C12.321 21.175 12.405 20.95 12.405 20.662C12.405 20.05 12.063 19.744 11.379 19.744H10.38V21.571H11.379ZM19.9686 25H18.7086L15.8556 20.689V25H14.5956V18.709H15.8556L18.7086 23.029V18.709H19.9686V25ZM25.5878 20.608C25.4438 20.344 25.2458 20.143 24.9938 20.005C24.7418 19.867 24.4478 19.798 24.1118 19.798C23.7398 19.798 23.4098 19.882 23.1218 20.05C22.8338 20.218 22.6088 20.458 22.4468 20.77C22.2848 21.082 22.2038 21.442 22.2038 21.85C22.2038 22.27 22.2848 22.636 22.4468 22.948C22.6148 23.26 22.8458 23.5 23.1398 23.668C23.4338 23.836 23.7758 23.92 24.1658 23.92C24.6458 23.92 25.0388 23.794 25.3448 23.542C25.6508 23.284 25.8518 22.927 25.9478 22.471H23.7878V21.508H27.1898V22.606C27.1058 23.044 26.9258 23.449 26.6498 23.821C26.3738 24.193 26.0168 24.493 25.5788 24.721C25.1468 24.943 24.6608 25.054 24.1208 25.054C23.5148 25.054 22.9658 24.919 22.4738 24.649C21.9878 24.373 21.6038 23.992 21.3218 23.506C21.0458 23.02 20.9078 22.468 20.9078 21.85C20.9078 21.232 21.0458 20.68 21.3218 20.194C21.6038 19.702 21.9878 19.321 22.4738 19.051C22.9658 18.775 23.5118 18.637 24.1118 18.637C24.8198 18.637 25.4348 18.811 25.9568 19.159C26.4788 19.501 26.8388 19.984 27.0368 20.608H25.5878Z" fill="white"/>
</g>
</svg>
